<svg width="30" height="30" viewBox="0 0 30 30" fill="none" xmlns="http://www.w3.org/2000/svg">
<path d="M0.588401 4.28571L0.66346 6.15051C0.182868 6.94176 -0.0677015 7.921 0.0158945 8.95944L1.22341 23.9594C1.40111 26.1669 3.04006 27.8571 5.00287 27.8571H16.7173V25.7143H5.00287C4.02146 25.7143 3.20199 24.8692 3.11314 23.7654L1.90562 8.76544C1.8046 7.51054 2.67955 6.42857 3.79535 6.42857H25.8443C26.9601 6.42857 27.8351 7.51054 27.734 8.76543L27.2322 15H29.1375L29.6238 8.95944C29.8258 6.44965 28.0759 4.28571 25.8443 4.28571H18.2893C17.2828 4.28571 16.3175 3.83419 15.6058 3.03046L14.0338 1.25526C13.3221 0.45153 12.3568 0 11.3503 0H4.38345C2.2875 0 0.588401 1.91878 0.588401 4.28571ZM11.3503 2.14286C11.8536 2.14286 12.3362 2.36862 12.6921 2.77049L14.0338 4.28571H3.79535C3.33859 4.28571 2.902 4.37637 2.4982 4.5421L2.48625 4.24527C2.50535 3.08046 3.34744 2.14286 4.38345 2.14286H11.3503Z" fill="#870AA0"/>
<path d="M25.2562 19.2857C25.7802 19.2857 26.205 19.7654 26.205 20.3571V23.5714H29.0512C29.5752 23.5714 30 24.0511 30 24.6429C30 25.2346 29.5752 25.7143 29.0512 25.7143H26.205V28.9286C26.205 29.5203 25.7802 30 25.2562 30C24.7322 30 24.3074 29.5203 24.3074 28.9286V25.7143H21.4611C20.9372 25.7143 20.5124 25.2346 20.5124 24.6429C20.5124 24.0511 20.9372 23.5714 21.4611 23.5714H24.3074V20.3571C24.3074 19.7654 24.7322 19.2857 25.2562 19.2857Z" fill="#870AA0"/>
</svg>
