<svg width="13" height="7" viewBox="0 0 13 7" fill="none" xmlns="http://www.w3.org/2000/svg">
<path d="M0.271639 0.266725C0.445622 0.102935 0.681561 0.010923 0.927573 0.010923C1.17358 0.010923 1.40952 0.102935 1.58351 0.266725L6.4942 4.89112L11.4049 0.266725C11.4905 0.18328 11.5929 0.11672 11.706 0.0709314C11.8192 0.0251427 11.941 0.00104105 12.0642 3.29865e-05C12.1874 -0.000975081 12.3095 0.0211312 12.4235 0.0650607C12.5376 0.10899 12.6412 0.173864 12.7283 0.255896C12.8154 0.337928 12.8843 0.435476 12.9309 0.542848C12.9776 0.650221 13.001 0.765266 13 0.881273C12.9989 0.99728 12.9733 1.11192 12.9247 1.21852C12.8761 1.32511 12.8054 1.42152 12.7168 1.50211L7.15013 6.7442C6.97615 6.90799 6.74021 7 6.4942 7C6.24819 7 6.01225 6.90799 5.83827 6.7442L0.271639 1.50211C0.0977087 1.33827 0 1.11609 0 0.884418C0 0.652749 0.0977087 0.430565 0.271639 0.266725Z" fill="#757575"/>
</svg>
