<svg width="30" height="30" viewBox="0 0 30 30" fill="none" xmlns="http://www.w3.org/2000/svg">
<path fill-rule="evenodd" clip-rule="evenodd" d="M18.75 23.4375C18.75 23.9553 18.3303 24.375 17.8125 24.375L2.8125 24.375C2.29473 24.375 1.875 23.9553 1.875 23.4375L1.875 6.5625C1.875 6.04473 2.29473 5.625 2.8125 5.625L17.8125 5.625C18.3303 5.625 18.75 6.04473 18.75 6.5625L18.75 10.3125C18.75 10.8303 19.1697 11.25 19.6875 11.25C20.2053 11.25 20.625 10.8303 20.625 10.3125L20.625 6.5625C20.625 5.0092 19.3658 3.75 17.8125 3.75L2.8125 3.75C1.2592 3.75 9.28465e-07 5.0092 8.60568e-07 6.5625L1.22938e-07 23.4375C5.50413e-08 24.9908 1.2592 26.25 2.8125 26.25L17.8125 26.25C19.3658 26.25 20.625 24.9908 20.625 23.4375L20.625 19.6875C20.625 19.1697 20.2053 18.75 19.6875 18.75C19.1697 18.75 18.75 19.1697 18.75 19.6875L18.75 23.4375Z" fill="#870AA0"/>
<path fill-rule="evenodd" clip-rule="evenodd" d="M29.7254 15.6629C30.0915 15.2968 30.0915 14.7032 29.7254 14.3371L24.1004 8.71209C23.7343 8.34597 23.1407 8.34597 22.7746 8.71209C22.4085 9.0782 22.4085 9.6718 22.7746 10.0379L26.7992 14.0625L10.3125 14.0625C9.79473 14.0625 9.375 14.4822 9.375 15C9.375 15.5178 9.79473 15.9375 10.3125 15.9375L26.7992 15.9375L22.7746 19.9621C22.4085 20.3282 22.4085 20.9218 22.7746 21.2879C23.1407 21.654 23.7343 21.654 24.1004 21.2879L29.7254 15.6629Z" fill="#870AA0"/>
</svg>
