<svg width="21" height="21" viewBox="0 0 21 21" fill="none" xmlns="http://www.w3.org/2000/svg">
<path d="M8.40516 2.10021C6.73327 2.10021 5.12986 2.7644 3.94765 3.94668C2.76545 5.12895 2.10129 6.73246 2.10129 8.40444C2.10129 10.0764 2.76545 11.6799 3.94765 12.8622C5.12986 14.0445 6.73327 14.7087 8.40516 14.7087C10.0771 14.7087 11.6805 14.0445 12.8627 12.8622C14.0449 11.6799 14.709 10.0764 14.709 8.40444C14.709 6.73246 14.0449 5.12895 12.8627 3.94668C11.6805 2.7644 10.0771 2.10021 8.40516 2.10021ZM5.1919e-08 8.40444C0.00019156 7.06675 0.319625 5.74842 0.931754 4.55901C1.54388 3.3696 2.43103 2.34348 3.51946 1.56591C4.60789 0.788341 5.86617 0.281788 7.18973 0.0883499C8.51329 -0.105088 9.8639 0.0201744 11.1293 0.453728C12.3947 0.887281 13.5384 1.6166 14.4653 2.58108C15.3922 3.54556 16.0755 4.71734 16.4585 5.99904C16.8414 7.28073 16.913 8.63533 16.6672 9.95025C16.4214 11.2652 15.8653 12.5024 15.0452 13.5592L20.7051 19.2194C20.8965 19.4175 21.0024 19.6829 21 19.9584C20.9976 20.2339 20.8871 20.4974 20.6923 20.6923C20.4975 20.8871 20.234 20.9976 19.9585 21C19.683 21.0024 19.4176 20.8964 19.2195 20.7051L13.5596 15.0449C12.3172 16.0096 10.829 16.6062 9.26435 16.767C7.69966 16.9278 6.12126 16.6463 4.70862 15.9545C3.29598 15.2627 2.1058 14.1883 1.27341 12.8536C0.441018 11.519 -0.000174744 9.97745 5.1919e-08 8.40444Z" fill="white"/>
</svg>
